#define cbox_16x16_width 16
#define cbox_16x16_height 16
static unsigned char cbox_16x16_bits[] = {
   0x00, 0x00, 0x00, 0x00, 0x00, 0x00, 0x00, 0x00, 0x00, 0x00, 0xe0, 0x07,
   0xe0, 0x07, 0x60, 0x06, 0x60, 0x06, 0xe0, 0x07, 0xe0, 0x07, 0x00, 0x00,
   0x00, 0x00, 0x00, 0x00, 0x00, 0x00, 0x00, 0x00 };
