#define cboxff_16x16_width 16
#define cboxff_16x16_height 16
static unsigned char cboxff_16x16_bits[] = {
   0xff, 0x1f, 0xff, 0x1f, 0xff, 0x1f, 0x03, 0x18, 0xfb, 0xff, 0xfb, 0xff,
   0xfb, 0xff, 0x1b, 0xc0, 0x1b, 0xc0, 0x1b, 0xc0, 0x1f, 0xc0, 0x1f, 0xc0,
   0x18, 0xc0, 0x18, 0xc0, 0xf8, 0xff, 0xf8, 0xff };
