#define cboxf_16x16_width 16
#define cboxf_16x16_height 16
static unsigned char cboxf_16x16_bits[] = {
   0xff, 0xff, 0xff, 0xff, 0xff, 0xff, 0xff, 0xff, 0x03, 0xc0, 0x03, 0xc0,
   0x03, 0xc0, 0x03, 0xc0, 0x03, 0xc0, 0x03, 0xc0, 0x03, 0xc0, 0x03, 0xc0,
   0x03, 0xc0, 0x03, 0xc0, 0xff, 0xff, 0xff, 0xff };
