#define cbox_16x16_width 16
#define cbox_16x16_height 16
static unsigned char cbox_16x16_bits[] = {
   0xff, 0xff, 0xff, 0xff, 0x03, 0xc0, 0x03, 0xc0, 0x03, 0xc0, 0xe3, 0xc7,
   0xe3, 0xc7, 0x63, 0xc6, 0x63, 0xc6, 0xe3, 0xc7, 0xe3, 0xc7, 0x03, 0xc0,
   0x03, 0xc0, 0x03, 0xc0, 0xff, 0xff, 0xff, 0xff };
