#define cboxff_24x24_width 24
#define cboxff_24x24_height 24
static unsigned char cboxff_24x24_bits[] = {
   0xff, 0xff, 0x07, 0xff, 0xff, 0x07, 0xff, 0xff, 0x07, 0xff, 0xff, 0x07,
   0x07, 0x00, 0x06, 0x07, 0x00, 0x06, 0xe7, 0xff, 0xff, 0xe7, 0xff, 0xff,
   0xe7, 0xff, 0xff, 0xe7, 0xff, 0xff, 0x67, 0x00, 0xe0, 0x67, 0x00, 0xe0,
   0x67, 0x00, 0xe0, 0x67, 0x00, 0xe0, 0x67, 0x00, 0xe0, 0x7f, 0x00, 0xe0,
   0x7f, 0x00, 0xe0, 0x7f, 0x00, 0xe0, 0x60, 0x00, 0xe0, 0x60, 0x00, 0xe0,
   0x60, 0x00, 0xe0, 0xe0, 0xff, 0xff, 0xe0, 0xff, 0xff, 0xe0, 0xff, 0xff };
