#define cboxf_24x24_width 24
#define cboxf_24x24_height 24
static unsigned char cboxf_24x24_bits[] = {
   0xff, 0xff, 0xff, 0xff, 0xff, 0xff, 0xff, 0xff, 0xff, 0xff, 0xff, 0xff,
   0xff, 0xff, 0xff, 0xff, 0xff, 0xff, 0x07, 0x00, 0xe0, 0x07, 0x00, 0xe0,
   0x07, 0x00, 0xe0, 0x07, 0x00, 0xe0, 0x07, 0x00, 0xe0, 0x07, 0x00, 0xe0,
   0x07, 0x00, 0xe0, 0x07, 0x00, 0xe0, 0x07, 0x00, 0xe0, 0x07, 0x00, 0xe0,
   0x07, 0x00, 0xe0, 0x07, 0x00, 0xe0, 0x07, 0x00, 0xe0, 0x07, 0x00, 0xe0,
   0x07, 0x00, 0xe0, 0xff, 0xff, 0xff, 0xff, 0xff, 0xff, 0xff, 0xff, 0xff };
