#define cbox_16x16_width 16
#define cbox_16x16_height 16
static unsigned char cbox_16x16_bits[] = {
   0x00, 0x00, 0x00, 0x00, 0x00, 0x00, 0x00, 0x00, 0x00, 0x00, 0x00, 0x00,
   0x00, 0x00, 0x00, 0x00, 0x00, 0x00, 0x00, 0x00, 0x00, 0x00, 0x00, 0x00,
   0x3f, 0x00, 0x3f, 0x00, 0xff, 0xff, 0xff, 0xff };
