#define cbox_24x24_width 24
#define cbox_24x24_height 24
static unsigned char cbox_24x24_bits[] = {
   0xff, 0xff, 0xff, 0xff, 0xff, 0xff, 0xff, 0xff, 0xff, 0x07, 0x00, 0xe0,
   0x07, 0x00, 0xe0, 0x07, 0x00, 0xe0, 0x07, 0x00, 0xe0, 0x07, 0x00, 0xe0,
   0x07, 0xff, 0xe0, 0x07, 0xff, 0xe0, 0x07, 0xff, 0xe0, 0x07, 0xe7, 0xe0,
   0x07, 0xe7, 0xe0, 0x07, 0xff, 0xe0, 0x07, 0xff, 0xe0, 0x07, 0xff, 0xe0,
   0x07, 0x00, 0xe0, 0x07, 0x00, 0xe0, 0x07, 0x00, 0xe0, 0x07, 0x00, 0xe0,
   0x07, 0x00, 0xe0, 0xff, 0xff, 0xff, 0xff, 0xff, 0xff, 0xff, 0xff, 0xff };
