#define cls_16x16_width 16
#define cls_16x16_height 16
static unsigned char cls_16x16_bits[] = {
   0x00, 0x00, 0xfc, 0x3f, 0xfe, 0x7f, 0x06, 0x60, 0x16, 0x68, 0x26, 0x64,
   0x46, 0x62, 0x86, 0x61, 0x86, 0x61, 0x46, 0x62, 0x26, 0x64, 0x16, 0x68,
   0x06, 0x60, 0xfe, 0x7f, 0xfc, 0x3f, 0x00, 0x00 };
