#define cls_24x24_width 24
#define cls_24x24_height 24
static unsigned char cls_24x24_bits[] = {
   0x00, 0x00, 0x00, 0x00, 0x00, 0x00, 0xf8, 0xff, 0x1f, 0xfc, 0xff, 0x3f,
   0x0c, 0x00, 0x30, 0x0c, 0x00, 0x30, 0xcc, 0x00, 0x33, 0xcc, 0x81, 0x33,
   0x8c, 0xc3, 0x31, 0x0c, 0xe7, 0x30, 0x0c, 0x7e, 0x30, 0x0c, 0x3c, 0x30,
   0x0c, 0x3c, 0x30, 0x0c, 0x7e, 0x30, 0x0c, 0xe7, 0x30, 0x8c, 0xc3, 0x31,
   0xcc, 0x81, 0x33, 0xcc, 0x00, 0x33, 0x0c, 0x00, 0x30, 0x0c, 0x00, 0x30,
   0xfc, 0xff, 0x3f, 0xf8, 0xff, 0x1f, 0x00, 0x00, 0x00, 0x00, 0x00, 0x00 };
