#define cls_12x12_width 12
#define cls_12x12_height 12
static unsigned char cls_12x12_bits[] = {
   0x00, 0x00, 0xfe, 0x07, 0x02, 0x04, 0x0a, 0x05, 0x92, 0x04, 0x62, 0x04,
   0x62, 0x04, 0x92, 0x04, 0x0a, 0x05, 0x02, 0x04, 0xfe, 0x07, 0x00, 0x00 };
