#define cx_16x16_width 16
#define cx_16x16_height 16
static unsigned char cx_16x16_bits[] = {
   0xff, 0xff, 0xff, 0xff, 0x0f, 0xf0, 0x1f, 0xf8, 0x3b, 0xdc, 0x73, 0xce,
   0xe3, 0xc7, 0xc3, 0xc3, 0xc3, 0xc3, 0xe3, 0xc7, 0x73, 0xce, 0x3b, 0xdc,
   0x1f, 0xf8, 0x0f, 0xf0, 0xff, 0xff, 0xff, 0xff };
