#define cx_24x24_width 24
#define cx_24x24_height 24
static unsigned char cx_24x24_bits[] = {
   0xff, 0xff, 0xff, 0xff, 0xff, 0xff, 0xff, 0xff, 0xff, 0x3f, 0x00, 0xfc,
   0x7f, 0x00, 0xfe, 0xff, 0x00, 0xff, 0xf7, 0x81, 0xef, 0xe7, 0xc3, 0xe7,
   0xc7, 0xe7, 0xe3, 0x87, 0xff, 0xe1, 0x07, 0xff, 0xe0, 0x07, 0x7e, 0xe0,
   0x07, 0x7e, 0xe0, 0x07, 0xff, 0xe0, 0x87, 0xff, 0xe1, 0xc7, 0xe7, 0xe3,
   0xe7, 0xc3, 0xe7, 0xf7, 0x81, 0xef, 0xff, 0x00, 0xff, 0x7f, 0x00, 0xfe,
   0x3f, 0x00, 0xfc, 0xff, 0xff, 0xff, 0xff, 0xff, 0xff, 0xff, 0xff, 0xff };
