#define cx_8x8_width 8
#define cx_8x8_height 8
static unsigned char cx_8x8_bits[] = {
   0x81, 0x42, 0x24, 0x18, 0x18, 0x24, 0x42, 0x81 };
