#define mascot_width 96
#define mascot_height 118
static unsigned char mascot_bits[] = {
   0x00, 0x00, 0x00, 0x00, 0x00, 0x00, 0x00, 0x00, 0x00, 0x00, 0x00, 0x00,
   0x00, 0x00, 0x80, 0x04, 0x00, 0x00, 0x00, 0x00, 0x00, 0x00, 0x00, 0x00,
   0x00, 0x00, 0xf0, 0x7f, 0x00, 0x00, 0x00, 0x00, 0x00, 0x00, 0x00, 0x00,
   0x00, 0x00, 0xfe, 0xff, 0x03, 0x00, 0x00, 0x00, 0x00, 0x00, 0x00, 0x00,
   0x00, 0x00, 0xff, 0xff, 0x0f, 0x00, 0x00, 0x00, 0x00, 0x00, 0x00, 0x00,
   0x00, 0x80, 0xff, 0xff, 0x1f, 0x00, 0x00, 0x00, 0x00, 0x00, 0x00, 0x00,
   0x00, 0xc0, 0x1f, 0xe0, 0x7f, 0x00, 0x00, 0x00, 0x00, 0x00, 0x00, 0x00,
   0x00, 0xe0, 0x0f, 0x00, 0xff, 0x00, 0x00, 0x00, 0x00, 0x00, 0x00, 0x00,
   0x00, 0xe0, 0x03, 0x00, 0xfc, 0x01, 0x00, 0x00, 0x00, 0x00, 0x00, 0x00,
   0x00, 0xf0, 0x01, 0x30, 0xf0, 0x03, 0x00, 0x00, 0x00, 0x00, 0x00, 0x00,
   0x00, 0xf8, 0x00, 0xf8, 0xe0, 0x07, 0x00, 0x00, 0x00, 0x00, 0x00, 0x00,
   0x00, 0xf8, 0x00, 0xf8, 0xc0, 0x0f, 0x00, 0x00, 0x00, 0x00, 0x00, 0x00,
   0x00, 0x78, 0x00, 0xfc, 0x80, 0x1f, 0x00, 0x00, 0x00, 0x00, 0x00, 0x00,
   0x00, 0x78, 0x00, 0xf8, 0x00, 0x1f, 0x00, 0x00, 0x00, 0x00, 0x00, 0x00,
   0x00, 0x3c, 0x00, 0x38, 0x00, 0x3e, 0x00, 0x00, 0x00, 0x00, 0x00, 0x00,
   0x00, 0x3c, 0x00, 0x00, 0x00, 0x7c, 0x00, 0x00, 0x00, 0x00, 0x00, 0x00,
   0x00, 0x3c, 0x00, 0x00, 0xc0, 0xff, 0x00, 0x00, 0x00, 0x00, 0x00, 0x00,
   0x00, 0x3c, 0x00, 0x00, 0xf8, 0xff, 0x00, 0x00, 0x00, 0x00, 0x00, 0x00,
   0x00, 0x3c, 0x00, 0x00, 0xff, 0xff, 0x00, 0x00, 0x00, 0x00, 0x00, 0x00,
   0x00, 0x3c, 0x00, 0xe0, 0xff, 0x3f, 0x00, 0x00, 0x00, 0x00, 0x00, 0x00,
   0x00, 0x7c, 0x00, 0xf8, 0xff, 0x00, 0x00, 0x00, 0x00, 0x00, 0x00, 0x00,
   0x00, 0x78, 0x00, 0xfe, 0x1f, 0x00, 0x00, 0x00, 0x00, 0x00, 0x00, 0x00,
   0x00, 0x78, 0x80, 0xff, 0x01, 0x00, 0x00, 0x00, 0x00, 0x00, 0x00, 0x00,
   0x00, 0x78, 0xc0, 0x7f, 0x00, 0x00, 0x00, 0x00, 0x00, 0x00, 0x00, 0x00,
   0x00, 0xf8, 0xf0, 0x1f, 0x00, 0x00, 0x00, 0x00, 0x00, 0x00, 0x00, 0x00,
   0x00, 0xf0, 0xf8, 0x1f, 0x00, 0x00, 0x00, 0x00, 0x00, 0x00, 0x00, 0x00,
   0x00, 0xf0, 0xff, 0x1f, 0x00, 0x00, 0x00, 0x00, 0x00, 0x00, 0x00, 0x00,
   0x00, 0xf0, 0x7f, 0x3e, 0x00, 0x00, 0x00, 0x00, 0x00, 0x00, 0x00, 0x00,
   0x00, 0xe0, 0x3f, 0x7c, 0x00, 0x00, 0x00, 0x00, 0x00, 0x00, 0x00, 0x00,
   0x00, 0xe0, 0x1f, 0x7c, 0x00, 0x00, 0x00, 0x00, 0x00, 0x00, 0x00, 0x00,
   0x00, 0xe0, 0x07, 0xf8, 0x00, 0x00, 0x00, 0x00, 0x00, 0x00, 0x00, 0x00,
   0x00, 0xf0, 0x07, 0xf0, 0x01, 0x00, 0x00, 0x00, 0x00, 0x00, 0x00, 0x00,
   0x00, 0xf8, 0x0f, 0xf0, 0x01, 0x00, 0x00, 0x00, 0x00, 0x00, 0x00, 0x00,
   0x00, 0xfc, 0x1f, 0xe0, 0x03, 0x00, 0x00, 0x00, 0x00, 0x00, 0x00, 0x00,
   0x00, 0x7e, 0x1f, 0xc0, 0x07, 0x00, 0x00, 0x00, 0x00, 0x00, 0x00, 0x00,
   0x00, 0x3e, 0x3e, 0x80, 0x0f, 0x00, 0x00, 0x00, 0x00, 0x00, 0x00, 0x00,
   0x00, 0x1f, 0x7e, 0x80, 0x0f, 0x00, 0x00, 0x00, 0x00, 0x00, 0x00, 0x00,
   0x80, 0x1f, 0x7c, 0x00, 0x1f, 0x00, 0x00, 0x00, 0x00, 0x00, 0x00, 0x00,
   0x80, 0x0f, 0xf8, 0x00, 0x3e, 0x00, 0x00, 0x00, 0x00, 0x00, 0x00, 0x00,
   0xc0, 0x07, 0xf8, 0x01, 0x7c, 0x00, 0x00, 0x00, 0x00, 0x00, 0x00, 0x00,
   0xc0, 0x03, 0xf8, 0x01, 0xfc, 0x00, 0x00, 0x00, 0x00, 0x00, 0x00, 0x00,
   0xe0, 0x03, 0xfc, 0x03, 0xf8, 0x01, 0x00, 0x00, 0x00, 0x00, 0x00, 0x00,
   0xe0, 0x01, 0xfe, 0x07, 0xf0, 0x01, 0x00, 0x00, 0x00, 0x00, 0x00, 0x00,
   0xf0, 0x01, 0xbf, 0x0f, 0xe0, 0x07, 0x00, 0x00, 0x00, 0x00, 0x00, 0x00,
   0xf0, 0x00, 0x9f, 0x1f, 0xc0, 0x07, 0x00, 0x00, 0x00, 0x00, 0x00, 0x00,
   0xf0, 0x80, 0x0f, 0x3f, 0x80, 0x0f, 0x00, 0x00, 0x00, 0x00, 0x00, 0x00,
   0xf8, 0x80, 0x07, 0x3e, 0x80, 0x1f, 0x00, 0x00, 0x00, 0x00, 0x00, 0x00,
   0x78, 0xc0, 0x07, 0x7c, 0x00, 0x3e, 0x00, 0x00, 0x00, 0x00, 0x00, 0x00,
   0x78, 0xc0, 0x03, 0xfc, 0x00, 0xfe, 0x00, 0x00, 0x00, 0x00, 0x00, 0x00,
   0x7c, 0xc0, 0x03, 0xf0, 0x01, 0xf8, 0x00, 0x00, 0x00, 0x00, 0x00, 0x00,
   0x3c, 0xe0, 0x01, 0xf0, 0x03, 0xf8, 0x03, 0x00, 0x00, 0x00, 0x00, 0x00,
   0x3c, 0xe0, 0x01, 0xe0, 0x07, 0xe0, 0x03, 0x00, 0x00, 0x00, 0x00, 0x00,
   0x3c, 0xe0, 0x01, 0xc0, 0x0f, 0xe0, 0x0f, 0x00, 0x00, 0x00, 0x00, 0x00,
   0x3c, 0xe0, 0x01, 0x80, 0x1f, 0x80, 0x1f, 0x00, 0x00, 0x00, 0x00, 0x00,
   0x3c, 0xf0, 0x00, 0x00, 0x3f, 0x80, 0x3f, 0x00, 0x00, 0x00, 0x00, 0x00,
   0x3c, 0xf0, 0x00, 0x00, 0x7e, 0x00, 0x7e, 0x00, 0x00, 0x00, 0x00, 0x00,
   0x1e, 0xf0, 0x00, 0x00, 0xfc, 0x00, 0xfc, 0x00, 0x00, 0x00, 0x00, 0x00,
   0x3c, 0xf0, 0x00, 0x00, 0xf8, 0x01, 0xf8, 0x01, 0x00, 0x00, 0x00, 0x00,
   0x1c, 0xf0, 0x00, 0x00, 0xf0, 0x03, 0xf0, 0x03, 0x00, 0x00, 0x00, 0x00,
   0x3c, 0xf0, 0x00, 0x00, 0xe0, 0x07, 0xe0, 0x07, 0x00, 0x00, 0x00, 0x00,
   0x3c, 0xe0, 0x01, 0x00, 0xc0, 0x0f, 0xc0, 0x0f, 0x00, 0x00, 0x00, 0x00,
   0x3c, 0xe0, 0x01, 0x00, 0x80, 0x3f, 0x80, 0x3f, 0x00, 0x00, 0x00, 0x00,
   0x3c, 0xf0, 0x01, 0x00, 0x00, 0x3f, 0x00, 0x3f, 0x00, 0x00, 0x00, 0x00,
   0x3c, 0xe0, 0x01, 0x00, 0x00, 0xfe, 0x00, 0xfc, 0x00, 0x00, 0x00, 0x00,
   0x7c, 0xc0, 0x03, 0x00, 0x00, 0xf8, 0x01, 0xfc, 0x01, 0x00, 0x00, 0x00,
   0x78, 0xc0, 0x07, 0x00, 0x00, 0xf0, 0x03, 0xf0, 0x03, 0x00, 0x00, 0x00,
   0x78, 0xc0, 0x07, 0x00, 0x00, 0xf0, 0x07, 0xe0, 0x07, 0x00, 0x00, 0x00,
   0xf8, 0x80, 0x0f, 0x00, 0x00, 0xc0, 0x0f, 0xc0, 0x0f, 0x00, 0x00, 0x00,
   0xf0, 0x00, 0x3f, 0x00, 0x00, 0x80, 0x1f, 0x80, 0x1f, 0x00, 0x00, 0x00,
   0xf0, 0x01, 0x7e, 0x00, 0x00, 0x00, 0x3f, 0x00, 0x3f, 0x00, 0x00, 0x00,
   0xf0, 0x01, 0xfe, 0x01, 0x00, 0x00, 0x7e, 0x00, 0x7e, 0x00, 0x00, 0x00,
   0xe0, 0x03, 0xf8, 0x0f, 0x00, 0x00, 0xfc, 0x00, 0xfc, 0x00, 0x00, 0x00,
   0xc0, 0x03, 0xf8, 0x3f, 0x00, 0x00, 0xf8, 0x01, 0xf8, 0x01, 0x00, 0x00,
   0xc0, 0x07, 0xc0, 0xff, 0x07, 0x00, 0xf0, 0x03, 0xf0, 0x03, 0x00, 0x00,
   0x80, 0x0f, 0x80, 0xff, 0x7f, 0x01, 0xe0, 0x0f, 0xe0, 0x03, 0x00, 0x00,
   0x00, 0x1f, 0x00, 0xfc, 0xff, 0x5f, 0x80, 0x0f, 0xc0, 0x07, 0x00, 0x00,
   0x00, 0x3f, 0x00, 0xe0, 0xff, 0xff, 0xaf, 0x1f, 0xc0, 0x0f, 0x00, 0x00,
   0x00, 0x7e, 0x00, 0x00, 0xfe, 0xff, 0xff, 0x3f, 0x00, 0x1f, 0x00, 0x00,
   0x00, 0xfc, 0x01, 0x00, 0xa0, 0xff, 0xff, 0x7f, 0x00, 0x3f, 0x00, 0x00,
   0x00, 0xf8, 0x03, 0x00, 0x00, 0xf0, 0xff, 0xff, 0x00, 0x7e, 0x00, 0x00,
   0x00, 0xf0, 0x0f, 0x00, 0x00, 0x00, 0xfa, 0xff, 0x01, 0x7c, 0x00, 0x00,
   0x00, 0xc0, 0x7f, 0x00, 0x00, 0x00, 0x00, 0xfd, 0x03, 0xf8, 0x00, 0x00,
   0x00, 0x80, 0xff, 0x01, 0x00, 0x00, 0x00, 0xc0, 0x07, 0xf0, 0x01, 0x00,
   0x00, 0x00, 0xfe, 0x1f, 0x00, 0x00, 0x00, 0x00, 0x00, 0xe0, 0x03, 0x00,
   0x00, 0x00, 0xf8, 0xff, 0x02, 0x00, 0x00, 0x00, 0x00, 0xe0, 0x03, 0x00,
   0x00, 0x00, 0xe0, 0xff, 0x3f, 0x00, 0x00, 0x00, 0x00, 0xc0, 0x07, 0x00,
   0x00, 0x00, 0x00, 0xff, 0xff, 0x17, 0x00, 0x00, 0x00, 0x80, 0x0f, 0x00,
   0x00, 0x00, 0x00, 0xf4, 0xff, 0xff, 0x0b, 0x00, 0x00, 0x80, 0x0f, 0x00,
   0x00, 0x00, 0x00, 0x80, 0xff, 0xff, 0xff, 0x02, 0x00, 0x00, 0x1f, 0x00,
   0x00, 0x00, 0x00, 0x00, 0xe8, 0xff, 0xff, 0x7f, 0x00, 0x00, 0x3e, 0x00,
   0x00, 0x00, 0x00, 0x00, 0x00, 0xfa, 0xff, 0xff, 0x07, 0x00, 0x3e, 0x00,
   0x00, 0x00, 0x00, 0x00, 0x00, 0xc0, 0xff, 0xff, 0x7f, 0x00, 0x7c, 0x00,
   0x00, 0x00, 0x00, 0x00, 0x00, 0x80, 0x4f, 0xff, 0xff, 0x03, 0xf8, 0x00,
   0x00, 0x00, 0x00, 0x00, 0x00, 0x00, 0x1f, 0xe0, 0xff, 0x3f, 0xf8, 0x00,
   0x00, 0x00, 0x00, 0x00, 0x00, 0x00, 0x3f, 0x00, 0xfe, 0xff, 0xf0, 0x01,
   0x00, 0x00, 0x00, 0x00, 0x00, 0x00, 0x7e, 0x00, 0xc0, 0xff, 0xe7, 0x01,
   0x00, 0x00, 0x00, 0x00, 0x00, 0x00, 0x7c, 0x00, 0x00, 0xfe, 0xff, 0x03,
   0x00, 0x00, 0x00, 0x00, 0x00, 0x00, 0xf8, 0x00, 0x00, 0xf0, 0xff, 0x03,
   0x00, 0x00, 0x00, 0x00, 0x00, 0x00, 0xf8, 0x01, 0x00, 0xc0, 0xff, 0x07,
   0x00, 0x00, 0x00, 0x00, 0x00, 0x00, 0xf0, 0x01, 0x00, 0x00, 0xfe, 0x07,
   0x00, 0x00, 0x00, 0x00, 0x00, 0x00, 0xe0, 0x03, 0x00, 0x00, 0xf8, 0x0f,
   0x00, 0x00, 0x00, 0x00, 0x00, 0x00, 0xc0, 0x07, 0x00, 0x00, 0xe0, 0x0f,
   0x00, 0x00, 0x00, 0x00, 0x00, 0x00, 0xc0, 0x0f, 0x00, 0x00, 0x80, 0x1f,
   0x00, 0x00, 0x00, 0x00, 0x00, 0x00, 0x80, 0x0f, 0x00, 0x00, 0x00, 0x1e,
   0x00, 0x00, 0x00, 0x00, 0x00, 0x00, 0xc0, 0x07, 0x00, 0x00, 0x00, 0x3c,
   0x00, 0x00, 0x00, 0x00, 0x00, 0x00, 0xe0, 0x07, 0x00, 0x00, 0x00, 0x10,
   0x00, 0x00, 0x00, 0x00, 0x00, 0x00, 0xe0, 0x03, 0x00, 0x00, 0x00, 0x00,
   0x00, 0x00, 0x00, 0x00, 0x00, 0x00, 0xf0, 0x01, 0x00, 0x00, 0x00, 0x00,
   0x00, 0x00, 0x00, 0x00, 0x00, 0x00, 0xf8, 0x00, 0x00, 0x00, 0x00, 0x00,
   0x00, 0x00, 0x00, 0x00, 0x00, 0x00, 0xfc, 0x00, 0x00, 0x00, 0x00, 0x00,
   0x00, 0x00, 0x00, 0x00, 0x00, 0x00, 0x7c, 0x00, 0x00, 0x00, 0x00, 0x00,
   0x00, 0x00, 0x00, 0x00, 0x00, 0x00, 0x3e, 0x00, 0x00, 0x00, 0x00, 0x00,
   0x00, 0x00, 0x00, 0x00, 0x00, 0x00, 0x3f, 0x00, 0x00, 0x00, 0x00, 0x00,
   0x00, 0x00, 0x00, 0x00, 0xfe, 0xff, 0xff, 0x1f, 0x00, 0x00, 0x00, 0x00,
   0x00, 0x00, 0x00, 0x00, 0xfe, 0xff, 0xff, 0x1f, 0x00, 0x00, 0x00, 0x00,
   0x00, 0x00, 0x00, 0x00, 0xfe, 0xff, 0xff, 0x3f, 0x00, 0x00, 0x00, 0x00,
   0x00, 0x00, 0x00, 0x00, 0xfe, 0xff, 0xff, 0x1f, 0x00, 0x00, 0x00, 0x00,
   0x00, 0x00, 0x00, 0x00, 0x00, 0x00, 0x00, 0x00, 0x00, 0x00, 0x00, 0x00 };
