#define max_24x24_width 24
#define max_24x24_height 24
static unsigned char max_24x24_bits[] = {
   0x00, 0x00, 0x00, 0x00, 0x00, 0x00, 0xf0, 0xff, 0x0f, 0xfc, 0xff, 0x3f,
   0x4c, 0xfe, 0x7f, 0xfe, 0xff, 0x7f, 0xfe, 0xff, 0x7f, 0x0e, 0x00, 0x70,
   0x0e, 0x00, 0x60, 0x0e, 0x00, 0x60, 0x0e, 0x00, 0x60, 0x0e, 0x00, 0x60,
   0x0e, 0x00, 0x60, 0x0e, 0x00, 0x60, 0x0e, 0x00, 0x60, 0x0e, 0x00, 0x60,
   0x0e, 0x00, 0x60, 0x0e, 0x00, 0x60, 0x0e, 0x00, 0x60, 0x0c, 0x00, 0x70,
   0xfc, 0xff, 0x3f, 0xf8, 0xff, 0x1f, 0x00, 0x00, 0x00, 0x00, 0x00, 0x00 };
