#define max_16x16_width 16
#define max_16x16_height 16
static unsigned char max_16x16_bits[] = {
   0x00, 0x00, 0x00, 0x00, 0xfe, 0x7f, 0xfe, 0x7f, 0xfe, 0x7f, 0x02, 0x40,
   0x02, 0x40, 0x02, 0x40, 0x02, 0x40, 0x02, 0x40, 0x02, 0x40, 0x02, 0x40,
   0x06, 0x40, 0xfe, 0x7f, 0xf8, 0x1f, 0x00, 0x00 };
