#define max_12x12_width 12
#define max_12x12_height 12
static unsigned char max_12x12_bits[] = {
   0x00, 0x00, 0xfe, 0x07, 0xfa, 0x07, 0x02, 0x04, 0x02, 0x04, 0x02, 0x04,
   0x02, 0x04, 0x02, 0x04, 0x02, 0x04, 0x02, 0x04, 0xfe, 0x07, 0x00, 0x00 };
