#define min_8x8_width 8
#define min_8x8_height 8
static unsigned char min_8x8_bits[] = {
   0x00, 0x00, 0x00, 0x00, 0x00, 0x00, 0x00, 0xff };
