#define siz_24x24_width 24
#define siz_24x24_height 24
static unsigned char siz_24x24_bits[] = {
   0xff, 0xff, 0xff, 0xff, 0xff, 0xff, 0xff, 0xff, 0xff, 0x07, 0x38, 0xe0,
   0x07, 0x38, 0xe0, 0x07, 0x38, 0xe0, 0x07, 0x38, 0xe0, 0x07, 0x38, 0xe0,
   0x07, 0x38, 0xe0, 0x07, 0x38, 0xe0, 0x07, 0x38, 0xe0, 0xff, 0x3f, 0xe0,
   0xff, 0x3f, 0xe0, 0xff, 0x3f, 0xe0, 0x07, 0x00, 0xe0, 0x07, 0x00, 0xe0,
   0x07, 0x00, 0xe0, 0x07, 0x00, 0xe0, 0x07, 0x00, 0xe0, 0x07, 0x00, 0xe0,
   0x07, 0x00, 0xe0, 0xff, 0xff, 0xff, 0xff, 0xff, 0xff, 0xff, 0xff, 0xff };
