#define siz_16x16_width 16
#define siz_16x16_height 16
static unsigned char siz_16x16_bits[] = {
   0xff, 0xff, 0xff, 0xff, 0x83, 0xc1, 0x83, 0xc1, 0x83, 0xc1, 0x83, 0xc1,
   0x83, 0xc1, 0xff, 0xc1, 0xff, 0xc1, 0x03, 0xc0, 0x03, 0xc0, 0x03, 0xc0,
   0x03, 0xc0, 0x03, 0xc0, 0xff, 0xff, 0xff, 0xff };
